# xmcd
#
# Track frame offsets: 
#        150
#        26596
#        40466
#        45188
#        49924
#        58659
#        70638
#        92401
#        105325
#        124997
#        133906
#        147354
#        157706
#        168798
#        183169
#        219382
#        224973
#        231222
#        235225
#        239816
#        244115
#        247155
#
# Disc length: 3543 seconds
#
# Revision: 4
# Processed by: cddbd v1.5.2PL0 Copyright (c) Steve Scherf et al.
# Submitted via: ExactAudioCopyFreeDBPlugin 1.0
#
DISCID=3d0dd516
DTITLE=Various Artists (Orgue de Scy-Chazelles, Phimippe Delacour) - H
DTITLE=ommage à Robert Schuman
DYEAR=2001
DGENRE=Class-organ
TTITLE0=François Benoist (Orgue de Scy-Chazelles, Philippe Delacour) /
TTITLE0=Offertoire
TTITLE1=François Benoist (Orgue de Scy-Chazelles, Philippe Delacour) /
TTITLE1=Cantabile
TTITLE2=François Benoist (Orgue de Scy-Chazelles, Philippe Delacour) /
TTITLE2=Prélude
TTITLE3=François Benoist (Orgue de Scy-Chazelles, Philippe Delacour) /
TTITLE3=Verset 1
TTITLE4=François Benoist (Orgue de Scy-Chazelles, Philippe Delacour) /
TTITLE4=Verset 2
TTITLE5=François Benoist (Orgue de Scy-Chazelles, Philippe Delacour) /
TTITLE5=Verset 3
TTITLE6=Félix Mendelssohn (Orgue de Scy-Chazelles, Philippe Delacour) 
TTITLE6=/ Nachspiel
TTITLE7=Franz Liszt (Orgue de Scy-Chazelles, Philippe Delacour) - Cons
TTITLE7=olation en Réb
TTITLE8=Franz Liszt (Orgue de Scy-Chazelles, Philippe Delacour) - Anda
TTITLE8=nte Religioso
TTITLE9=Johannes Brahms (Orgue de Scy-Chazelles, Philippe Delacour) - 
TTITLE9=Schmücke dich o liebe Seele
TTITLE10=Johannes Brahms (Orgue de Scy-Chazelles, Philippe Delacour) /
TTITLE10=Herzlich tut mich verlangen
TTITLE11=Clément Loret (Orgue de Scy-Chazelles, Philippe Delacour) - C
TTITLE11=antilène
TTITLE12=Alexandre Guilmant (Orgue de Scy-Chazelles, Philippe Delacour
TTITLE12=) - Communion
TTITLE13=Alexandre Guilmant (Orgue de Scy-Chazelles, Philippe Delacour
TTITLE13=) - Mélodie
TTITLE14=César Franck (Orgue de Scy-Chazelles, Philippe Delacour) - Pi
TTITLE14=èce symphonique
TTITLE15=César Franck (Orgue de Scy-Chazelles, Philippe Delacour) - Ma
TTITLE15=gnificat et Grand Choeur
TTITLE16=César Franck (Orgue de Scy-Chazelles, Philippe Delacour) - An
TTITLE16=dantino
TTITLE17=César Franck (Orgue de Scy-Chazelles, Philippe Delacour) - Ma
TTITLE17=rche
TTITLE18=César Franck (Orgue de Scy-Chazelles, Philippe Delacour) - Al
TTITLE18=legretto
TTITLE19=César Franck (Orgue de Scy-Chazelles, Philippe Delacour) - Gr
TTITLE19=and Choeur
TTITLE20=César Franck (Orgue de Scy-Chazelles, Philippe Delacour) - Am
TTITLE20=en et Gloria Patrie
TTITLE21=César Franck (Orgue de Scy-Chazelles, Philippe Delacour) - So
TTITLE21=rtie en Fa Majeur
EXTD=YEAR: 2001
EXTT0=
EXTT1=
EXTT2=
EXTT3=
EXTT4=
EXTT5=
EXTT6=
EXTT7=
EXTT8=
EXTT9=
EXTT10=
EXTT11=
EXTT12=
EXTT13=
EXTT14=
EXTT15=
EXTT16=
EXTT17=
EXTT18=
EXTT19=
EXTT20=
EXTT21=
PLAYORDER=
